<?xml version="1.0" encoding="UTF-8"?> <!-- Generator: Adobe Illustrator 16.0.0, SVG Export Plug-In . SVG Version: 6.00 Build 0) --> <svg xmlns="http://www.w3.org/2000/svg" xmlns:xlink="http://www.w3.org/1999/xlink" version="1.1" id="Capa_1" x="0px" y="0px" width="850px" height="150px" viewBox="0 0 850 150" xml:space="preserve"> <g> <path fill-rule="evenodd" clip-rule="evenodd" fill="#C02924" d="M385.559,116.485c-12.657-8.176-29.85-9.595-57.544-1.885 c-29.539,6.927-39.385,11.378-52.317,2.46c-4.965-4.422-6.75-11.469-5.419-21.654c3.088-16.554,11.422-32.534,26.23-50.236 c8.265-9.231,15.933-17.122,26.06-20.308c7.753-1.991,7.034,4.108,6.097,4.979c-0.992,0-2.663,0.166-3.949,0.996 c-1.039,0.814-3.902,3.439-4.062,6.956c-0.221,5.386,5.349,4.251,7.751,1.298c2.594-3.335,6.421-9.716,3.413-15.649 c-1.267-2.112-3.441-3.576-6.152-4.086c-9.273-0.529-17.905,3.905-25.873,8.78c-17.427,12.117-31.367,28.882-39.25,47.233 c-4.552,11.103-8.663,26.949-2.499,39.853c4.771,8.991,14.671,13.716,26.481,12.749c8.289-0.904,18.304-3.531,25.041-5.162 c6.738-1.628,41.22-13.474,52.561,7.153c0,0,3.759-7.321,13.184-7.482c7.738-0.711,18.914,2.232,27.028,8.209 C399.636,126.598,391.957,120.607,385.559,116.485L385.559,116.485z"></path> <path fill-rule="evenodd" clip-rule="evenodd" fill="#C02924" d="M331.53,47.239c-6.453-4.226-19.419,3.863-29.804,17.746 c-9.493,12.463-13.593,26.907-9.132,33.592c6.636,7.861,18.963-3.549,24.197-9.72l0.683-0.709c3.56-3.789,6.313-8.434,8.976-12.813 c0,0,2.455-4.073,2.571-4.254c1.517-0.286,3.338-0.709,5.392-1.298c-0.035,0.076-7.86,13.22-7.066,19.769 c0.251,1.992,0.057,9.266,7.176,11.484c9.466,1.613,17.037-5.75,23.705-12.299c0,0,1.146-1.072,1.79-1.676 c-0.169,0.619-0.384,1.523-0.384,1.523c-2.773,9.629,0.972,11.636,3.312,12.418c7.06,2.024,15.519-8.207,15.535-8.207 c-0.226,3.199-0.868,5.886,2.562,8.014c3.21,1.162,6.463-0.516,8.932-2.165c8.94-6.301,16.107-16.229,21.91-24.62h-3.697 c-0.051,0.06-9.138,13.157-15.046,15.995c-0.007,0-1.071,0.558-1.703,0.105c-0.764-0.678-0.464-2.112,0.033-3.063 c0.017-0.089,22.765-39.657,22.765-39.657h-10.735c0,0-1.173,1.992-1.278,2.113c-0.067-0.061-0.241-0.347-0.359-0.513 c-6.642-9.205-21.738,4.98-33.086,21.427c-4.365,6.322-9.931,13.459-15.709,18.547c0,0-8.54,7.847-12.198,2.217 c-1.334-2.354-0.922-5.781-0.174-8.087c4.263-12.088,11.589-23.088,19.918-29.713c2.352-1.826,4.917-2.354,6.196-1.584 c1.193,0.71,1.405,2.504,0.641,3.697c-1.954-0.06-3.505,0.528-4.78,1.855c-2.479,2.596-3.352,5.117-2.551,7.5 c3.835,5.463,11.51-5.372,11.148-11.952c-0.126-2.383-1.4-4.617-3.279-5.69c-2.81-1.688-7.09-1.266-9.853,0.078 c-3.722,1.403-9.595,6.298-13.011,10.08c-4.322,4.782-11.716,10.064-14.038,9.476C331.847,64.819,338.105,52.038,331.53,47.239 L331.53,47.239z M383.342,66.162c2.101-2.882,8.187-10.653,9.664-11.951c4.985-4.391,6.979-2.459,7.152-1.079 c-4.67,8.336-10.145,17.889-15.313,26.459c0.013-0.016-1.621,2.46-1.621,2.46c-2.284,3.499-4.576,6.46-8.325,8.557 c-0.531,0.193-1.413,0.227-1.997-0.226c-0.708-0.468-0.99-1.209-0.92-2.024C372.211,85.674,374.945,77.48,383.342,66.162 L383.342,66.162z M324.872,71.157c0,0-0.093,0.287-0.132,0.392c-0.017,0-4.687,7.59-4.687,7.59 c-2.822,3.816-6.347,8.525-10.751,10.775c-1.307,0.45-3.107,0.709-4.026-0.395c-1.95-2.339-0.944-5.598-0.131-8.193l0.289-0.936 c2.341-6.367,6.056-11.951,9.665-17.157c0.045-0.016,0.151-0.061,0.181-0.061c0.014,0.044,0.031,0.044,0.035,0.105 c2.268,4.346,6.515,6.355,9.691,7.289c0.026,0,0.041,0.044,0.041,0.105C325.048,70.779,324.995,70.9,324.872,71.157L324.872,71.157 z M329.308,62.179c-0.027,0.06-2.091,4.798-2.091,4.798c-0.296,0.242-0.767,0.121-1.301,0l-0.93-0.166 c-2.909-0.891-5.098-2.822-5.773-5.116c-0.932-4.496,2.898-8.012,4.59-9.294c1.609-1.117,4.126-1.706,5.586-0.543 c0.906,1.056,1.243,2.415,1.243,3.923C330.632,57.787,330.017,60.065,329.308,62.179L329.308,62.179z"></path> <path fill-rule="evenodd" clip-rule="evenodd" fill="#C02924" d="M465.185,76.634c-1.046-2.263-3.506-3.681-6.107-3.545 c-8.534,0.799-16.857,7.787-21.212,17.851c-2.318,5.16-3.589,9.401-4.41,16.192c2.671-3.048,8.067-8.073,14.177-10.789 c0,0,0.827-6.477,5.121-12.298c1.565-2.37,4.817-6.233,8.441-5.192c3.161,1.056,2.021,9.764-2.187,18.214 c-3.078,6.275-7.856,12.493-12.664,16.751c-4.236,3.62-10.545,7.966-16.052,4.645c-3.433-2.081-5.196-6.396-4.832-11.919 c1.647-15.708,8.799-29.079,19.015-44.32c10.551-14.169,22.227-28.701,37.86-36.442c3.236-1.63,6.183-1.992,8.749-0.997 c0,0-14.74,8.088-21.76,23.043c-1.772,3.803-4.244,8.947-1.763,13.475c1.331,2.381,3.628,2.564,5.499,2.444 c8.631-1.993,14.165-10.021,18.719-17.383c2.605-5.568,4.947-11.092,4.947-17.259c0-0.744-0.02-1.739-0.11-2.494 c4.104-2.172,12.534,1.69,12.534,1.69c6.572,2.173,20.609,12.903,25.318,14.955c2.324-2.666,6.094-6.711,8.248-8.737l-3.102-1.891 c-4.934-3.027-10.182-5.895-15.334-8.717c-11.645-6.382-21.147-4.148-26.024-2.398c-1.889,0.693-3.638,1.282-3.638,1.282 c-3.562-3.923-9.487-3.561-13.826-2.504c-15.597,4.496-30.11,15.407-45.614,34.371c-11.453,14.837-18.54,27.634-22.305,40.294 c-2.92,8.542-3.803,21.081,3.323,28.549c6.04,6.32,14.058,4.935,19.7,2.652c12.28-6.031,23.294-19.039,28.737-34.023 C465.998,87.681,467.438,81.432,465.185,76.634L465.185,76.634z M493.339,29.72c-1.625,18.621-16.071,29.532-19.651,30.406 c-2.165,0.423-5.89-0.528-2.541-8.33c4.837-10.532,13.148-19.451,22.061-24.023C493.432,28.543,493.428,29.04,493.339,29.72 L493.339,29.72z"></path> <path fill-rule="evenodd" clip-rule="evenodd" fill="#C02924" d="M579.168,32.093c-7.795,4.417-15.869,7.284-25.613,6.288 c-2.703,3.049-5.353,6.193-7.758,9.431c13.705,3.471,28.23-4.27,36.33-11.648c8.566-7.439,12.951-16.808,12.951-16.808 S588.668,26.716,579.168,32.093L579.168,32.093z"></path> <polygon fill-rule="evenodd" clip-rule="evenodd" fill="#C02924" points="432.132,47.405 421.903,47.405 416.153,57.138 426.381,57.138 432.132,47.405 "></polygon> <path fill-rule="evenodd" clip-rule="evenodd" fill="#C02924" d="M553.526,117.438c-1.128,0.778-2.661,0.122-2.079-1.556 c1.422-4.404,7.146-13.338,7.146-13.338l15.914-28.293h-10.895c-0.547,0.953-1.629,2.866-1.629,2.866 c-0.502-0.831-2.004-2.686-2.656-3.092c-2.631-1.661-6.568-0.875-9.251,0.677c-11.701,6.851-20.224,20.357-26.985,30.905 c0,0-7.068,11.725-11.024,12.629c-3.061,0.241-2.781-3.878-2.608-4.888c1.187-6.941,3.916-13.596,6.713-19.586 c5.639-3.896,12.092-9.04,17.959-14.67c12.746-12.177,23.496-25.96,25.049-29.047c0,0-1.689,0.347-3.714,0.407 c-9.774,13.656-29.813,33.485-35.897,36.486c2.693-6.517,20.061-37.405,34.885-52.179l2.326-2.234 c3.584-3.516,7.324-7.136,10.24-7.726c0.305-0.016,0.703,0,1.049,0.724c0.123,2.732-0.91,4.769-2.08,7.063l-1.639,3.352 c0,0,2.332-0.424,3.854-0.929c1.766-3.313,3.738-7.056,3.023-11.506c-0.246-1.431-1.283-2.521-2.658-2.763 c-4.391-0.857-9.211,2.416-13.088,5.057l-0.162,0.104c-19.91,15.588-36.69,38.043-51.363,68.706 c-1.115,0.815-5.224,1.824-5.925,1.356c1.487-3.017,3.279-7.016,4.205-11.362c0.181-1.267,0.329-2.55,0.329-3.758 c0-2.687-0.674-5.235-3.045-6.956c-2.812-1.403-6.309-0.753-8.652,0.302c-10.492,4.346-18.32,15.12-24.019,24.008 c-3.047,5.627-6.088,11.636-6.919,18.546c-0.589,5.449,0.599,8.902,3.719,10.653c3.165,1.628,7.149-0.033,8.695-0.847 c10.649-5.612,18.059-16.855,23.918-27.146c0.234-0.016,3.453-0.12,5.855-0.724c0.018,0,0.076,0,0.108,0.016 c-0.128,0.468-1.396,4.208-1.396,4.208c-3.732,10.896-5.412,18.29-1.9,22.71c5.018,6.2,13.276-0.226,20.05-8.678 c-1.435,10.112,3.783,11.726,7.832,10.928c4.59-1.268,9.73-6.134,12.094-8.678c-0.763,2.943-0.568,8.226,3.635,8.782 c2.863,0.499,5.025-0.936,7.502-2.261c8.912-4.877,19.578-21.157,22.369-25.624h-3.635 C564.818,105.924,559.809,113.768,553.526,117.438L553.526,117.438z M473.498,116.261c-0.575-0.831-0.786-1.782-0.796-2.807 c-0.112-6.096,6.45-16.976,11.11-22.998c0.006,0,0.006,0,0.006,0c1.908,4.482,6.334,7.031,9.007,8.188 C489.48,105.955,478.201,121.752,473.498,116.261L473.498,116.261z M494.637,95.391c-0.275,0.226-5.859-1.646-6.923-6.79 c-0.866-4.436,2.175-7.861,5.117-9.612c1.227-1.024,3.167-1.372,4.565-0.831c1.294,0.847,1.645,2.386,1.645,4.105 c0,1.04-0.131,2.097-0.284,3.048c0,0-0.029,0.151-0.031,0.225C497.796,88.964,496.384,92.359,494.637,95.391L494.637,95.391z M539.139,114.285c-0.002,0-1.053,0.936-1.053,0.936c-1.51,1.372-3.041,2.791-4.906,2.08c-0.492-0.209-0.85-0.904-0.949-1.403 c-0.102-3.847,1.641-7.378,3.295-10.862l0.449-0.862c4.805-8.058,10.41-17.477,18.615-24.098c1.381-0.967,2.852-1.798,4.463-1.176 c0.359,0.347,0.789,0.936,0.789,1.523c0,0.21-0.184,0.693-0.291,0.889c-2.26,3.667-4.465,7.546-6.58,11.288 C548.835,99.979,544.523,107.6,539.139,114.285L539.139,114.285z"></path> </g> </svg> 